<svg width="396" height="82" viewBox="0 0 396 82" fill="none" xmlns="http://www.w3.org/2000/svg">
<path d="M59 42H265.5" stroke="#4F44E0" stroke-width="2" stroke-linecap="round" stroke-dasharray="4 4"/>
<g filter="url(#filter0_d_13468_15031)">
<circle cx="171" cy="41" r="17" fill="#CF3D3D"/>
</g>
<path d="M165.293 35.2773L177.017 47.0016" stroke="white" stroke-width="2" stroke-linecap="round"/>
<path d="M177.136 35.2773L165.411 47.0016" stroke="white" stroke-width="2" stroke-linecap="round"/>
<rect y="1" width="80" height="80" rx="20" fill="white"/>
<g clip-path="url(#clip0_13468_15031)">
<rect x="11" y="12" width="58" height="58" fill="#4F44E0"/>
<path d="M36.1821 35.2997C38.0572 35.2997 39.7652 35.7556 41.3064 36.6675C42.8475 37.5793 44.074 38.8058 44.9858 40.3469C45.8977 41.8752 46.3536 43.5704 46.3536 45.4326C46.3536 46.8325 46.0903 48.1489 45.5637 49.3818C45.0372 50.6147 44.3052 51.6999 43.3676 52.6374C42.443 53.5621 41.3642 54.2877 40.1313 54.8143C38.9112 55.3408 37.5948 55.6041 36.1821 55.6041C34.9749 55.6041 33.9025 55.3344 32.965 54.795C32.0403 54.2428 31.2633 53.53 30.634 52.6567V55.1032H25.9336V26.207H30.634V38.2471C31.2633 37.3738 32.0403 36.6675 32.965 36.1281C33.9025 35.5758 34.9749 35.2997 36.1821 35.2997ZM36.1243 51.0578C37.1261 51.0578 38.0315 50.8073 38.8406 50.3065C39.6625 49.7927 40.3175 49.1121 40.8055 48.2645C41.2935 47.4168 41.5375 46.4729 41.5375 45.4326C41.5375 44.4052 41.2935 43.4677 40.8055 42.6201C40.3175 41.7596 39.6625 41.0789 38.8406 40.5781C38.0186 40.0772 37.1132 39.8268 36.1243 39.8268C35.1483 39.8268 34.275 40.0836 33.5044 40.5973C32.7338 41.0982 32.1302 41.7789 31.6936 42.6393C31.2569 43.487 31.0386 44.4181 31.0386 45.4326C31.0386 46.4729 31.2569 47.4233 31.6936 48.2837C32.1302 49.1313 32.7338 49.8056 33.5044 50.3065C34.275 50.8073 35.1483 51.0578 36.1243 51.0578Z" fill="white"/>
<path d="M51.6043 55.7611C50.9365 55.7611 50.365 55.5299 49.8898 55.0676C49.4275 54.5924 49.1963 54.0145 49.1963 53.3338C49.1963 52.6788 49.4275 52.1137 49.8898 51.6386C50.365 51.1634 50.9365 50.9258 51.6043 50.9258C52.2721 50.9258 52.8436 51.1634 53.3188 51.6386C53.794 52.1137 54.0316 52.6788 54.0316 53.3338C54.0316 54.0145 53.794 54.5924 53.3188 55.0676C52.8436 55.5299 52.2721 55.7611 51.6043 55.7611Z" fill="white"/>
</g>
<rect x="253" y="1" width="143" height="80" rx="20" fill="white"/>
<g clip-path="url(#clip1_13468_15031)">
<path d="M283.091 26.0828C283.305 26.0828 283.412 26.1912 283.626 26.2996C282.342 26.8415 281.058 28.2506 280.416 31.2856L278.062 31.9359C278.811 29.7681 280.309 26.0828 283.091 26.0828ZM284.268 27.1667C284.482 27.817 284.696 28.5758 284.696 29.7681C284.696 29.8765 284.696 29.8765 284.696 29.9849L281.593 30.852C282.235 28.5758 283.305 27.6003 284.268 27.1667ZM287.05 29.1177L285.659 29.5513C285.659 29.4429 285.659 29.3345 285.659 29.2261C285.659 28.2506 285.552 27.4919 285.338 26.8415C286.087 27.0583 286.729 28.0338 287.05 29.1177ZM294.005 30.852C294.005 30.7436 293.898 30.6352 293.791 30.6352C293.577 30.6352 291.33 30.4184 291.33 30.4184C291.33 30.4184 289.725 28.7926 289.511 28.6842C289.297 28.4674 288.976 28.5758 288.869 28.5758C288.869 28.5758 288.548 28.6842 288.013 28.901C287.478 27.3835 286.515 25.9744 284.91 25.9744H284.803C284.375 25.324 283.733 25.1072 283.198 25.1072C279.346 24.9989 277.527 29.8765 276.885 32.3695C276.029 32.5863 275.173 32.9114 274.21 33.2366C273.354 33.4534 273.354 33.5618 273.247 34.3205C273.14 34.8625 271 51.9884 271 51.9884L288.013 55.2401L297.215 53.1807C297.215 53.1807 294.005 31.0688 294.005 30.852Z" fill="#8DB849"/>
<path d="M293.684 30.6337C293.577 30.6337 291.33 30.4169 291.33 30.4169C291.33 30.4169 289.725 28.791 289.511 28.6826C289.404 28.5742 289.404 28.5742 289.297 28.5742L288.013 55.2386L297.215 53.1791C297.215 53.1791 294.005 31.0672 294.005 30.8504C294.005 30.7421 293.791 30.6337 293.684 30.6337Z" fill="#5A863E"/>
<path d="M284.91 35.8385L283.733 39.3071C283.733 39.3071 282.77 38.7651 281.486 38.7651C279.667 38.7651 279.56 39.849 279.56 40.1742C279.56 41.6917 283.626 42.342 283.626 46.0273C283.626 48.9539 281.807 50.7966 279.346 50.7966C276.457 50.7966 274.959 48.9539 274.959 48.9539L275.708 46.3525C275.708 46.3525 277.206 47.6532 278.49 47.6532C279.346 47.6532 279.667 47.0029 279.667 46.4609C279.667 44.4015 276.35 44.2931 276.35 40.9329C276.35 38.1147 278.383 35.405 282.342 35.405C284.161 35.2966 284.91 35.8385 284.91 35.8385Z" fill="#FFFFFE"/>
<path d="M308.022 42.2337C307.059 41.6917 306.631 41.2581 306.631 40.7162C306.631 39.9574 307.273 39.5239 308.343 39.5239C309.52 39.5239 310.59 40.0658 310.59 40.0658L311.446 37.4644C311.446 37.4644 310.697 36.8141 308.45 36.8141C305.24 36.8141 303.1 38.6567 303.1 41.2581C303.1 42.7756 304.17 43.8595 305.454 44.6183C306.524 45.2686 306.952 45.7022 306.952 46.3525C306.952 47.0029 306.417 47.6532 305.347 47.6532C303.849 47.6532 302.351 46.8945 302.351 46.8945L301.495 49.4959C301.495 49.4959 302.779 50.363 305.026 50.363C308.236 50.363 310.59 48.7372 310.59 45.8106C310.59 44.1847 309.413 42.9924 308.022 42.2337ZM320.969 36.7057C319.364 36.7057 318.08 37.4644 317.117 38.6567L318.508 31.2861H314.87L311.339 50.0379H314.977L316.154 43.6428C316.582 41.2581 317.866 39.7407 319.043 39.7407C319.899 39.7407 320.22 40.2826 320.22 41.1497C320.22 41.6917 320.22 42.2337 320.113 42.7756L318.722 50.1463H322.36L323.751 42.5588C323.858 41.8001 323.965 40.8246 323.965 40.1742C323.965 38.0064 322.895 36.7057 320.969 36.7057ZM330.278 47.4365C328.994 47.4365 328.566 46.3525 328.566 45.0518C328.566 42.9924 329.636 39.5239 331.562 39.5239C332.846 39.5239 333.274 40.6078 333.274 41.6917C333.274 44.0763 332.204 47.4365 330.278 47.4365ZM332.097 36.7057C327.71 36.7057 324.821 40.7162 324.821 45.1602C324.821 47.9784 326.533 50.2546 329.85 50.2546C334.13 50.2546 337.019 46.3525 337.019 41.8001C337.019 39.1987 335.521 36.7057 332.097 36.7057ZM342.797 47.5449C341.834 47.5449 341.299 47.0029 341.299 47.0029L341.941 43.5344C342.369 41.2581 343.546 39.7407 344.83 39.7407C345.9 39.7407 346.328 40.8246 346.328 41.8001C346.221 44.1847 344.83 47.5449 342.797 47.5449ZM346.328 36.7057C343.867 36.7057 342.476 38.8735 342.476 38.8735L342.69 36.9225H339.48C339.373 38.2232 339.052 40.2826 338.731 41.8001L336.163 55.2407H339.801L340.764 49.8211H340.871C340.871 49.8211 341.62 50.2546 343.011 50.2546C347.291 50.2546 350.073 45.8106 350.073 41.3665C350.073 38.9819 349.003 36.7057 346.328 36.7057ZM355.209 31.5029C354.032 31.5029 353.176 32.4784 353.176 33.6707C353.176 34.7546 353.818 35.5134 354.888 35.5134C356.065 35.5134 357.028 34.7546 357.028 33.3456C357.028 32.2616 356.279 31.5029 355.209 31.5029ZM350.18 50.0379H353.818L356.279 37.0309H352.641L350.18 50.0379ZM365.481 37.0309H362.913L363.02 36.3805C363.234 35.0798 363.983 33.9959 365.16 33.9959C365.802 33.9959 366.337 34.2127 366.337 34.2127L367.086 31.2861C367.086 31.2861 366.444 30.9609 365.16 30.9609C363.876 30.9609 362.592 31.2861 361.629 32.1532C360.345 33.2372 359.81 34.7546 359.489 36.2721L359.382 36.9225H357.67L357.135 39.7407H358.847L356.921 50.0379H360.559L362.485 39.7407H364.946L365.481 37.0309ZM374.148 37.0309C374.148 37.0309 371.901 42.7756 370.831 45.919C370.724 44.9435 369.975 37.0309 369.975 37.0309H366.123L368.263 48.9539C368.263 49.1707 368.263 49.3875 368.156 49.6043C367.728 50.4714 366.979 51.2302 366.23 51.7721C365.588 52.3141 364.732 52.6393 364.197 52.856L365.16 55.9994C365.909 55.891 367.407 55.2407 368.691 54.0483C370.296 52.5309 371.901 50.0379 373.399 46.7861L377.786 37.1393L374.148 37.0309Z" fill="#1A1919"/>
</g>
<defs>
<filter id="filter0_d_13468_15031" x="130" y="0" width="82" height="82" filterUnits="userSpaceOnUse" color-interpolation-filters="sRGB">
<feFlood flood-opacity="0" result="BackgroundImageFix"/>
<feColorMatrix in="SourceAlpha" type="matrix" values="0 0 0 0 0 0 0 0 0 0 0 0 0 0 0 0 0 0 127 0" result="hardAlpha"/>
<feOffset/>
<feGaussianBlur stdDeviation="12"/>
<feComposite in2="hardAlpha" operator="out"/>
<feColorMatrix type="matrix" values="0 0 0 0 0.309804 0 0 0 0 0.266667 0 0 0 0 0.878431 0 0 0 0.15 0"/>
<feBlend mode="normal" in2="BackgroundImageFix" result="effect1_dropShadow_13468_15031"/>
<feBlend mode="normal" in="SourceGraphic" in2="effect1_dropShadow_13468_15031" result="shape"/>
</filter>
<clipPath id="clip0_13468_15031">
<rect x="11" y="12" width="58" height="58" rx="13" fill="white"/>
</clipPath>
<clipPath id="clip1_13468_15031">
<rect width="107" height="31" fill="white" transform="translate(271 25)"/>
</clipPath>
</defs>
</svg>
