<svg width="82" height="18" viewBox="0 0 82 18" fill="none" xmlns="http://www.w3.org/2000/svg">
<path d="M16.3757 12.9915V6.22595H18.996V12.3042C18.996 12.7266 19.0998 13.1132 19.3074 13.464C19.515 13.8077 19.7907 14.0833 20.1343 14.2909C20.4851 14.4914 20.8682 14.5916 21.2834 14.5916C21.713 14.5916 22.0996 14.4914 22.4432 14.2909C22.7869 14.0833 23.0625 13.8077 23.2701 13.464C23.4777 13.1132 23.5815 12.7266 23.5815 12.3042V6.22595H26.2019L26.2126 16.965H23.5923L23.5815 15.9877C23.2093 16.3743 22.769 16.6822 22.2606 16.9113C21.7523 17.1332 21.2082 17.2442 20.6283 17.2442C19.8479 17.2442 19.1356 17.0544 18.4913 16.675C17.8469 16.2884 17.3314 15.7765 16.9448 15.1393C16.5654 14.495 16.3757 13.7791 16.3757 12.9915Z" fill="#4F44E0"/>
<path d="M32.5961 16.9365C31.6081 16.9365 30.706 16.6824 29.8898 16.1741C29.0808 15.6657 28.4329 14.982 27.9461 14.1229C27.4664 13.2638 27.2266 12.3152 27.2266 11.2771C27.2266 10.4967 27.3662 9.76645 27.6454 9.08631C27.9246 8.39902 28.3076 7.79763 28.7945 7.28216C29.2885 6.75953 29.8612 6.35145 30.5127 6.05791C31.1642 5.76438 31.8587 5.61761 32.5961 5.61761C33.4337 5.61761 34.1998 5.7966 34.8942 6.15456C35.5958 6.50537 36.1901 6.98863 36.6769 7.60433C37.1637 8.22003 37.5181 8.92165 37.74 9.70918C37.962 10.4967 38.0121 11.32 37.8904 12.1791H30.0402C30.1404 12.5801 30.3051 12.9416 30.5342 13.2638C30.7633 13.5788 31.0532 13.833 31.404 14.0263C31.7548 14.2124 32.1522 14.309 32.5961 14.3162C33.0543 14.3234 33.4695 14.216 33.8418 13.994C34.2212 13.7649 34.5362 13.4571 34.7868 13.0705L37.4608 13.6933C37.0241 14.6455 36.3726 15.4259 35.5063 16.0344C34.6401 16.6358 33.67 16.9365 32.5961 16.9365ZM29.9543 10.2139H35.2379C35.1591 9.78435 34.9909 9.39774 34.7331 9.0541C34.4826 8.70329 34.1711 8.42407 33.7988 8.21645C33.4265 8.00883 33.0256 7.90502 32.5961 7.90502C32.1665 7.90502 31.7692 8.00883 31.404 8.21645C31.0389 8.41692 30.7275 8.69255 30.4697 9.04336C30.2192 9.38701 30.0473 9.77719 29.9543 10.2139Z" fill="#4F44E0"/>
<path d="M46.3061 13.4249L48.6687 14.7028C48.1747 15.3758 47.5554 15.9163 46.8109 16.3244C46.0663 16.7325 45.2537 16.9365 44.3731 16.9365C43.3851 16.9365 42.483 16.6824 41.6669 16.1741C40.8579 15.6657 40.2099 14.9856 39.7231 14.1336C39.2434 13.2745 39.0036 12.3259 39.0036 11.2878C39.0036 10.5003 39.1432 9.76645 39.4224 9.08631C39.7016 8.39902 40.0847 7.79763 40.5715 7.28216C41.0655 6.75953 41.6382 6.35145 42.2897 6.05791C42.9412 5.76438 43.6357 5.61761 44.3731 5.61761C45.2537 5.61761 46.0663 5.82166 46.8109 6.22974C47.5554 6.63782 48.1747 7.18551 48.6687 7.87281L46.3061 9.14001C46.0555 8.85363 45.7584 8.6317 45.4148 8.47419C45.0783 8.31668 44.7311 8.23793 44.3731 8.23793C43.8576 8.23793 43.3923 8.38112 42.977 8.66749C42.5618 8.94671 42.2325 9.31899 41.989 9.78435C41.7456 10.2425 41.6239 10.7437 41.6239 11.2878C41.6239 11.8248 41.7456 12.3259 41.989 12.7913C42.2325 13.2495 42.5618 13.6182 42.977 13.8974C43.3923 14.1766 43.8576 14.3162 44.3731 14.3162C44.7454 14.3162 45.0998 14.2375 45.4363 14.08C45.7728 13.9153 46.0627 13.6969 46.3061 13.4249Z" fill="#4F44E0"/>
<path d="M55.0514 16.9365C54.0634 16.9365 53.1613 16.6824 52.3452 16.1741C51.5362 15.6657 50.8882 14.9856 50.4014 14.1336C49.9217 13.2745 49.6819 12.3259 49.6819 11.2878C49.6819 10.5003 49.8215 9.76645 50.1007 9.08631C50.3799 8.39902 50.7629 7.79763 51.2498 7.28216C51.7438 6.75953 52.3165 6.35145 52.968 6.05791C53.6195 5.76438 54.314 5.61761 55.0514 5.61761C56.0394 5.61761 56.9379 5.87177 57.7469 6.38008C58.563 6.8884 59.211 7.57211 59.6906 8.43123C60.1775 9.29035 60.4209 10.2425 60.4209 11.2878C60.4209 12.0682 60.2813 12.7984 60.0021 13.4786C59.7229 14.1587 59.3362 14.7601 58.8423 15.2827C58.3554 15.7982 57.7863 16.2027 57.1348 16.4962C56.4904 16.7898 55.796 16.9365 55.0514 16.9365ZM55.0514 14.3162C55.574 14.3162 56.043 14.1766 56.4582 13.8974C56.8734 13.6182 57.1992 13.2495 57.4354 12.7913C57.6789 12.3331 57.8006 11.8319 57.8006 11.2878C57.8006 10.7294 57.6753 10.2211 57.4247 9.76287C57.1813 9.29751 56.8484 8.92881 56.426 8.65675C56.0107 8.37754 55.5525 8.23793 55.0514 8.23793C54.5359 8.23793 54.0706 8.37754 53.6553 8.65675C53.2401 8.93597 52.9107 9.30825 52.6673 9.77361C52.4239 10.239 52.3022 10.7437 52.3022 11.2878C52.3022 11.8534 52.4275 12.3653 52.6781 12.8235C52.9286 13.2817 53.2616 13.6468 53.6768 13.9189C54.0992 14.1838 54.5574 14.3162 55.0514 14.3162Z" fill="#4F44E0"/>
<path d="M61.4341 16.8609V6.12192H64.0544V7.07769C64.4195 6.69109 64.8562 6.38682 65.3646 6.16488C65.8729 5.93578 66.4206 5.82123 67.0076 5.82123C67.7522 5.82123 68.4359 5.99663 69.0588 6.34744C69.6888 6.69825 70.1899 7.16718 70.5622 7.75425C70.9417 7.16718 71.4428 6.69825 72.0657 6.34744C72.6886 5.99663 73.3723 5.82123 74.1168 5.82123C74.9044 5.82123 75.6167 6.01453 76.2539 6.40113C76.8982 6.78058 77.4101 7.29247 77.7896 7.93681C78.1762 8.57399 78.3695 9.28635 78.3695 10.0739V16.8609H75.7492V10.7719C75.7492 10.3567 75.6454 9.97722 75.4377 9.63357C75.2373 9.28277 74.9652 9.00355 74.6216 8.79593C74.2851 8.58115 73.9056 8.47376 73.4832 8.47376C73.0608 8.47376 72.6778 8.57757 72.3342 8.78519C71.9977 8.98565 71.7256 9.25771 71.518 9.60136C71.3104 9.945 71.2066 10.3352 71.2066 10.7719V16.8609H68.5863V10.7719C68.5863 10.3352 68.486 9.945 68.2856 9.60136C68.0851 9.25771 67.8131 8.98565 67.4694 8.78519C67.1258 8.57757 66.7427 8.47376 66.3203 8.47376C65.9051 8.47376 65.5256 8.58115 65.182 8.79593C64.8383 9.00355 64.5627 9.28277 64.3551 9.63357C64.1546 9.97722 64.0544 10.3567 64.0544 10.7719V16.8609H61.4341Z" fill="#4F44E0"/>
<path d="M5.71315 5.82461C6.75841 5.82461 7.71061 6.07877 8.56973 6.58708C9.42885 7.09539 10.1126 7.77911 10.6209 8.63823C11.1292 9.49019 11.3833 10.4352 11.3833 11.4733C11.3833 12.2537 11.2366 12.9875 10.943 13.6748C10.6495 14.3621 10.2414 14.9671 9.7188 15.4897C9.20333 16.0052 8.60194 16.4097 7.91465 16.7032C7.23451 16.9968 6.50068 17.1435 5.71315 17.1435C5.04017 17.1435 4.44237 16.9932 3.91974 16.6925C3.40426 16.3846 2.97112 15.9873 2.62032 15.5005V16.8643H0V0.755798H2.62032V7.46768C2.97112 6.98084 3.40426 6.58708 3.91974 6.28639C4.44237 5.97853 5.04017 5.82461 5.71315 5.82461ZM5.68093 14.6091C6.23936 14.6091 6.74409 14.4695 7.19513 14.1903C7.65333 13.9039 8.01846 13.5245 8.29051 13.052C8.56257 12.5794 8.69859 12.0532 8.69859 11.4733C8.69859 10.9006 8.56257 10.3779 8.29051 9.90543C8.01846 9.42575 7.65333 9.04631 7.19513 8.7671C6.73694 8.48788 6.2322 8.34827 5.68093 8.34827C5.13682 8.34827 4.64999 8.49146 4.22043 8.77783C3.79087 9.05705 3.45438 9.43649 3.21096 9.91617C2.96754 10.3887 2.84584 10.9077 2.84584 11.4733C2.84584 12.0532 2.96754 12.583 3.21096 13.0627C3.45438 13.5352 3.79087 13.9111 4.22043 14.1903C4.64999 14.4695 5.13682 14.6091 5.68093 14.6091Z" fill="#4F44E0"/>
<path d="M12.3605 16.9656V0.755798H14.9946V16.9656H12.3605Z" fill="#4F44E0"/>
<path d="M80.7261 16.9975C80.3755 16.9975 80.0756 16.8762 79.8262 16.6335C79.5835 16.3841 79.4622 16.0808 79.4622 15.7235C79.4622 15.3798 79.5835 15.0832 79.8262 14.8338C80.0756 14.5844 80.3755 14.4597 80.7261 14.4597C81.0766 14.4597 81.3765 14.5844 81.6259 14.8338C81.8753 15.0832 82 15.3798 82 15.7235C82 16.0808 81.8753 16.3841 81.6259 16.6335C81.3765 16.8762 81.0766 16.9975 80.7261 16.9975Z" fill="#4F44E0"/>
</svg>
