<svg width="200" height="150" viewBox="0 0 200 150" fill="none" xmlns="http://www.w3.org/2000/svg">
<g clip-path="url(#clip0_2316_25688)">
<path opacity="0.1" d="M109.097 79.3526H91.1222C84.0926 79.3526 79.3701 74.4223 79.3701 67.0829V50.1428C79.3701 42.8035 84.0926 37.8711 91.1222 37.8711H109.1C116.129 37.8711 120.852 42.8035 120.852 50.1428V67.0829C120.852 74.4223 116.129 79.3526 109.097 79.3526" fill="#1570EF"/>
<path fill-rule="evenodd" clip-rule="evenodd" d="M98.5451 51.7157C98.5451 54.5571 96.2325 56.8697 93.391 56.8697C90.5474 56.8697 88.2369 54.5571 88.2369 51.7157C88.2369 48.8742 90.5474 46.5595 93.391 46.5595C96.2325 46.5595 98.5451 48.8742 98.5451 51.7157ZM115.46 62.9418C115.943 63.4106 116.29 63.9457 116.518 64.516C117.208 66.2417 116.85 68.3157 116.111 70.0248C115.236 72.0594 113.56 73.5963 111.449 74.2683C110.511 74.5691 109.528 74.6977 108.547 74.6977H91.1642C89.4345 74.6977 87.9038 74.2953 86.649 73.5403C85.8629 73.0674 85.7239 71.9786 86.3068 71.2692C87.2816 70.087 88.2439 68.9006 89.2146 67.7039C91.0647 65.4141 92.3112 64.7504 93.6967 65.3332C94.2588 65.5738 94.8229 65.9368 95.4037 66.3184C96.9509 67.343 99.1017 68.7492 101.935 67.2227C103.872 66.1638 104.996 64.3517 105.974 62.7745L105.994 62.7427C106.06 62.6371 106.125 62.5316 106.19 62.4264C106.523 61.8888 106.851 61.3593 107.222 60.8719C107.682 60.2683 109.391 58.3809 111.6 59.7249C113.008 60.5711 114.193 61.716 115.46 62.9418Z" fill="#1570EF"/>
<g clip-path="url(#clip1_2316_25688)">
<path d="M50.7404 109.352L47.7774 106.389L44.8145 109.352" stroke="#1570EF" stroke-width="1.77778" stroke-linecap="round" stroke-linejoin="round"/>
<path d="M47.7773 106.389V113.055" stroke="#1570EF" stroke-width="1.77778" stroke-linecap="round" stroke-linejoin="round"/>
<path d="M53.9924 111.122C54.7149 110.728 55.2856 110.105 55.6145 109.35C55.9434 108.596 56.0118 107.754 55.8088 106.956C55.6059 106.159 55.1431 105.452 54.4936 104.947C53.8441 104.441 53.0449 104.167 52.222 104.166H51.2887C51.0645 103.299 50.6466 102.494 50.0664 101.811C49.4863 101.129 48.759 100.587 47.9391 100.226C47.1193 99.865 46.2284 99.6947 45.3332 99.7277C44.4381 99.7606 43.5621 99.9961 42.771 100.416C41.98 100.837 41.2946 101.431 40.7662 102.154C40.2378 102.877 39.8803 103.711 39.7205 104.592C39.5607 105.474 39.6028 106.38 39.8437 107.243C40.0845 108.106 40.5178 108.902 41.1109 109.574" stroke="#1570EF" stroke-width="1.77778" stroke-linecap="round" stroke-linejoin="round"/>
<path d="M50.7404 109.352L47.7774 106.389L44.8145 109.352" stroke="#1570EF" stroke-width="1.77778" stroke-linecap="round" stroke-linejoin="round"/>
</g>
<path d="M75.2251 101.157H76.7907V107.96C76.7907 108.684 76.6207 109.325 76.2806 109.884C75.9405 110.439 75.4624 110.877 74.8463 111.197C74.2301 111.513 73.5079 111.672 72.6796 111.672C71.8547 111.672 71.1341 111.513 70.518 111.197C69.9018 110.877 69.4237 110.439 69.0836 109.884C68.7436 109.325 68.5735 108.684 68.5735 107.96V101.157H70.1341V107.833C70.1341 108.301 70.2368 108.717 70.4422 109.081C70.651 109.444 70.9456 109.731 71.3261 109.939C71.7065 110.145 72.1577 110.247 72.6796 110.247C73.2048 110.247 73.6577 110.145 74.0382 109.939C74.422 109.731 74.715 109.444 74.917 109.081C75.1224 108.717 75.2251 108.301 75.2251 107.833V101.157ZM78.9384 114.409V103.742H80.4132V105H80.5394C80.627 104.838 80.7533 104.652 80.9182 104.439C81.0832 104.227 81.3122 104.042 81.6051 103.884C81.898 103.722 82.2852 103.641 82.7667 103.641C83.393 103.641 83.9519 103.8 84.4435 104.116C84.9351 104.433 85.3206 104.889 85.6001 105.485C85.8829 106.081 86.0243 106.798 86.0243 107.636C86.0243 108.475 85.8846 109.194 85.6051 109.793C85.3256 110.389 84.9418 110.848 84.4536 111.172C83.9654 111.492 83.4081 111.652 82.7819 111.652C82.3105 111.652 81.925 111.572 81.6253 111.414C81.329 111.256 81.0967 111.071 80.9283 110.859C80.76 110.646 80.6304 110.458 80.5394 110.293H80.4485V114.409H78.9384ZM80.4182 107.621C80.4182 108.167 80.4974 108.645 80.6556 109.056C80.8139 109.466 81.0428 109.788 81.3425 110.02C81.6421 110.249 82.0091 110.364 82.4435 110.364C82.8947 110.364 83.2718 110.244 83.5748 110.005C83.8778 109.763 84.1068 109.434 84.2617 109.02C84.4199 108.606 84.499 108.14 84.499 107.621C84.499 107.109 84.4216 106.65 84.2667 106.242C84.1152 105.835 83.8862 105.513 83.5798 105.278C83.2768 105.042 82.898 104.924 82.4435 104.924C82.0058 104.924 81.6354 105.037 81.3324 105.263C81.0327 105.488 80.8054 105.803 80.6506 106.207C80.4957 106.611 80.4182 107.082 80.4182 107.621ZM89.2263 101.157V111.5H87.7162V101.157H89.2263ZM94.5256 111.657C93.7983 111.657 93.1636 111.49 92.6215 111.157C92.0794 110.823 91.6586 110.357 91.3589 109.758C91.0592 109.158 90.9094 108.458 90.9094 107.657C90.9094 106.852 91.0592 106.148 91.3589 105.545C91.6586 104.943 92.0794 104.475 92.6215 104.141C93.1636 103.808 93.7983 103.641 94.5256 103.641C95.2528 103.641 95.8875 103.808 96.4296 104.141C96.9717 104.475 97.3926 104.943 97.6922 105.545C97.9919 106.148 98.1417 106.852 98.1417 107.657C98.1417 108.458 97.9919 109.158 97.6922 109.758C97.3926 110.357 96.9717 110.823 96.4296 111.157C95.8875 111.49 95.2528 111.657 94.5256 111.657ZM94.5306 110.389C95.002 110.389 95.3926 110.264 95.7023 110.015C96.0121 109.766 96.241 109.434 96.3892 109.02C96.5407 108.606 96.6165 108.15 96.6165 107.652C96.6165 107.157 96.5407 106.702 96.3892 106.288C96.241 105.87 96.0121 105.535 95.7023 105.283C95.3926 105.03 95.002 104.904 94.5306 104.904C94.0559 104.904 93.6619 105.03 93.3488 105.283C93.039 105.535 92.8084 105.87 92.6569 106.288C92.5087 106.702 92.4346 107.157 92.4346 107.652C92.4346 108.15 92.5087 108.606 92.6569 109.02C92.8084 109.434 93.039 109.766 93.3488 110.015C93.6619 110.264 94.0559 110.389 94.5306 110.389ZM102.085 111.672C101.593 111.672 101.149 111.581 100.752 111.399C100.354 111.214 100.039 110.946 99.8071 110.596C99.5782 110.246 99.4637 109.816 99.4637 109.308C99.4637 108.87 99.5479 108.51 99.7162 108.227C99.8846 107.944 100.112 107.721 100.398 107.556C100.684 107.391 101.004 107.266 101.358 107.182C101.711 107.098 102.071 107.034 102.438 106.99C102.903 106.936 103.28 106.892 103.57 106.859C103.859 106.822 104.07 106.763 104.201 106.682C104.332 106.601 104.398 106.47 104.398 106.288V106.253C104.398 105.811 104.273 105.47 104.024 105.227C103.779 104.985 103.411 104.864 102.923 104.864C102.415 104.864 102.014 104.976 101.721 105.202C101.432 105.424 101.231 105.672 101.12 105.944L99.7011 105.621C99.8694 105.15 100.115 104.769 100.438 104.48C100.765 104.187 101.14 103.975 101.565 103.843C101.989 103.709 102.435 103.641 102.903 103.641C103.213 103.641 103.541 103.678 103.888 103.753C104.238 103.823 104.565 103.955 104.868 104.146C105.174 104.338 105.425 104.613 105.62 104.97C105.816 105.323 105.913 105.783 105.913 106.348V111.5H104.438V110.439H104.378C104.28 110.635 104.134 110.827 103.938 111.015C103.743 111.204 103.492 111.36 103.186 111.485C102.88 111.609 102.513 111.672 102.085 111.672ZM102.413 110.46C102.831 110.46 103.188 110.377 103.484 110.212C103.784 110.047 104.011 109.832 104.166 109.566C104.324 109.296 104.403 109.008 104.403 108.702V107.702C104.349 107.756 104.245 107.806 104.09 107.854C103.938 107.897 103.765 107.936 103.57 107.97C103.374 108 103.184 108.029 102.999 108.056C102.814 108.079 102.659 108.099 102.534 108.116C102.241 108.153 101.974 108.215 101.731 108.303C101.492 108.391 101.3 108.517 101.156 108.682C101.014 108.843 100.943 109.059 100.943 109.328C100.943 109.702 101.082 109.985 101.358 110.177C101.634 110.365 101.986 110.46 102.413 110.46ZM110.829 111.652C110.202 111.652 109.643 111.492 109.152 111.172C108.664 110.848 108.28 110.389 108 109.793C107.724 109.194 107.586 108.475 107.586 107.636C107.586 106.798 107.726 106.081 108.005 105.485C108.288 104.889 108.675 104.433 109.167 104.116C109.659 103.8 110.216 103.641 110.839 103.641C111.32 103.641 111.707 103.722 112 103.884C112.297 104.042 112.526 104.227 112.687 104.439C112.852 104.652 112.98 104.838 113.071 105H113.162V101.157H114.672V111.5H113.197V110.293H113.071C112.98 110.458 112.849 110.646 112.677 110.859C112.509 111.071 112.276 111.256 111.98 111.414C111.684 111.572 111.3 111.652 110.829 111.652ZM111.162 110.364C111.596 110.364 111.963 110.249 112.263 110.02C112.566 109.788 112.795 109.466 112.95 109.056C113.108 108.645 113.187 108.167 113.187 107.621C113.187 107.082 113.11 106.611 112.955 106.207C112.8 105.803 112.573 105.488 112.273 105.263C111.973 105.037 111.603 104.924 111.162 104.924C110.707 104.924 110.329 105.042 110.026 105.278C109.723 105.513 109.494 105.835 109.339 106.242C109.187 106.65 109.111 107.109 109.111 107.621C109.111 108.14 109.189 108.606 109.344 109.02C109.499 109.434 109.728 109.763 110.031 110.005C110.337 110.244 110.714 110.364 111.162 110.364ZM120.712 101.157H122.606L125.899 109.197H126.021L129.313 101.157H131.207V111.5H129.723V104.015H129.627L126.576 111.485H125.344L122.293 104.01H122.197V111.5H120.712V101.157ZM136.699 111.657C135.934 111.657 135.276 111.493 134.724 111.167C134.175 110.837 133.751 110.374 133.451 109.778C133.155 109.178 133.007 108.476 133.007 107.672C133.007 106.877 133.155 106.177 133.451 105.571C133.751 104.965 134.168 104.492 134.704 104.152C135.242 103.811 135.872 103.641 136.592 103.641C137.03 103.641 137.454 103.714 137.865 103.859C138.276 104.003 138.645 104.231 138.971 104.54C139.298 104.85 139.555 105.253 139.744 105.747C139.933 106.239 140.027 106.837 140.027 107.54V108.076H133.86V106.944H138.547C138.547 106.547 138.466 106.195 138.305 105.889C138.143 105.579 137.916 105.335 137.623 105.157C137.333 104.978 136.993 104.889 136.603 104.889C136.178 104.889 135.808 104.993 135.491 105.202C135.178 105.407 134.936 105.677 134.764 106.01C134.596 106.34 134.512 106.699 134.512 107.086V107.97C134.512 108.488 134.603 108.929 134.784 109.293C134.97 109.657 135.227 109.934 135.557 110.126C135.887 110.315 136.273 110.409 136.714 110.409C137 110.409 137.261 110.369 137.497 110.288C137.732 110.204 137.936 110.079 138.108 109.914C138.279 109.749 138.411 109.545 138.502 109.303L139.931 109.561C139.816 109.981 139.611 110.35 139.315 110.667C139.022 110.98 138.653 111.224 138.209 111.399C137.768 111.571 137.264 111.657 136.699 111.657ZM144.606 111.652C143.98 111.652 143.421 111.492 142.93 111.172C142.441 110.848 142.058 110.389 141.778 109.793C141.502 109.194 141.364 108.475 141.364 107.636C141.364 106.798 141.504 106.081 141.783 105.485C142.066 104.889 142.453 104.433 142.945 104.116C143.436 103.8 143.994 103.641 144.616 103.641C145.098 103.641 145.485 103.722 145.778 103.884C146.074 104.042 146.303 104.227 146.465 104.439C146.63 104.652 146.758 104.838 146.849 105H146.94V101.157H148.45V111.5H146.975V110.293H146.849C146.758 110.458 146.627 110.646 146.455 110.859C146.286 111.071 146.054 111.256 145.758 111.414C145.462 111.572 145.078 111.652 144.606 111.652ZM144.94 110.364C145.374 110.364 145.741 110.249 146.041 110.02C146.344 109.788 146.573 109.466 146.728 109.056C146.886 108.645 146.965 108.167 146.965 107.621C146.965 107.082 146.888 106.611 146.733 106.207C146.578 105.803 146.35 105.488 146.051 105.263C145.751 105.037 145.381 104.924 144.94 104.924C144.485 104.924 144.106 105.042 143.803 105.278C143.5 105.513 143.271 105.835 143.116 106.242C142.965 106.65 142.889 107.109 142.889 107.621C142.889 108.14 142.967 108.606 143.122 109.02C143.276 109.434 143.505 109.763 143.808 110.005C144.115 110.244 144.492 110.364 144.94 110.364ZM150.605 111.5V103.742H152.115V111.5H150.605ZM151.368 102.545C151.105 102.545 150.88 102.458 150.691 102.283C150.506 102.104 150.413 101.892 150.413 101.646C150.413 101.397 150.506 101.185 150.691 101.01C150.88 100.832 151.105 100.742 151.368 100.742C151.63 100.742 151.854 100.832 152.039 101.01C152.228 101.185 152.322 101.397 152.322 101.646C152.322 101.892 152.228 102.104 152.039 102.283C151.854 102.458 151.63 102.545 151.368 102.545ZM156.404 111.672C155.913 111.672 155.468 111.581 155.071 111.399C154.674 111.214 154.359 110.946 154.127 110.596C153.898 110.246 153.783 109.816 153.783 109.308C153.783 108.87 153.867 108.51 154.036 108.227C154.204 107.944 154.431 107.721 154.717 107.556C155.004 107.391 155.324 107.266 155.677 107.182C156.031 107.098 156.391 107.034 156.758 106.99C157.223 106.936 157.6 106.892 157.889 106.859C158.179 106.822 158.389 106.763 158.521 106.682C158.652 106.601 158.717 106.47 158.717 106.288V106.253C158.717 105.811 158.593 105.47 158.344 105.227C158.098 104.985 157.731 104.864 157.243 104.864C156.734 104.864 156.334 104.976 156.041 105.202C155.751 105.424 155.551 105.672 155.44 105.944L154.021 105.621C154.189 105.15 154.435 104.769 154.758 104.48C155.084 104.187 155.46 103.975 155.884 103.843C156.308 103.709 156.755 103.641 157.223 103.641C157.532 103.641 157.861 103.678 158.207 103.753C158.558 103.823 158.884 103.955 159.187 104.146C159.494 104.338 159.744 104.613 159.94 104.97C160.135 105.323 160.233 105.783 160.233 106.348V111.5H158.758V110.439H158.697C158.6 110.635 158.453 110.827 158.258 111.015C158.063 111.204 157.812 111.36 157.505 111.485C157.199 111.609 156.832 111.672 156.404 111.672ZM156.733 110.46C157.15 110.46 157.507 110.377 157.803 110.212C158.103 110.047 158.33 109.832 158.485 109.566C158.643 109.296 158.723 109.008 158.723 108.702V107.702C158.669 107.756 158.564 107.806 158.409 107.854C158.258 107.897 158.084 107.936 157.889 107.97C157.694 108 157.504 108.029 157.318 108.056C157.133 108.079 156.978 108.099 156.854 108.116C156.561 108.153 156.293 108.215 156.051 108.303C155.812 108.391 155.62 108.517 155.475 108.682C155.334 108.843 155.263 109.059 155.263 109.328C155.263 109.702 155.401 109.985 155.677 110.177C155.953 110.365 156.305 110.46 156.733 110.46Z" fill="#1570EF"/>
</g>
<defs>
<clipPath id="clip0_2316_25688">
<rect width="200" height="150" rx="5" fill="white"/>
</clipPath>
<clipPath id="clip1_2316_25688">
<rect width="17.7778" height="17.7778" fill="white" transform="translate(38.8887 97.5)"/>
</clipPath>
</defs>
</svg>
